<svg width="272" height="132" viewBox="0 0 272 132" fill="none" xmlns="http://www.w3.org/2000/svg">
<path d="M51.4824 38.9854V20.3332H56.9111V38.5214C56.9111 40.4083 58.071 41.2357 59.896 41.2357C60.3987 41.2357 60.94 41.1662 61.3267 41.0734V45.0714C60.708 45.2338 59.463 45.3652 58.2257 45.3652C54.0421 45.3652 51.4824 43.2154 51.4824 38.9854Z" fill="white"/>
<path d="M84.7051 45.1332V28.0044H89.5924V29.9531C90.6364 28.5303 92.4227 27.4708 95.3303 27.4708C99.6686 27.4708 102.344 30.2161 102.344 34.3842V45.1332H96.9156V34.2528C96.9156 32.6675 95.485 31.5075 93.66 31.5075C91.603 31.5075 90.1337 32.6675 90.1337 34.2528V45.1332H84.7051Z" fill="white"/>
<path d="M112.65 35.1189H116.293V34.624C116.293 32.7061 114.777 31.4457 112.186 31.4457C110.129 31.4457 108.776 32.072 107.454 33.1624L104.933 30.1233C106.796 28.4065 109.433 27.4786 112.921 27.4786C118.156 27.4786 121.412 30.1929 121.412 34.5234V45.141H116.293V44.677C116.293 44.3135 116.293 43.6175 116.331 43.2232H116.177C115.442 44.6461 113.54 45.6668 110.787 45.6668C107.106 45.6668 104.469 43.5866 104.469 40.3774C104.469 37.1372 107.686 35.1189 112.65 35.1189ZM116.293 39.6505V38.1657H112.96C110.98 38.1657 109.859 38.9622 109.859 40.215C109.859 41.4755 110.748 42.2643 112.573 42.2643C114.707 42.2565 116.293 40.9342 116.293 39.6505Z" fill="white"/>
<path d="M135.912 27.873V31.9715C135.332 31.8091 134.481 31.7704 133.855 31.7704C131.952 31.7704 130.251 32.5283 130.251 34.4847V45.1332H124.822V28.0044H129.71V30.1233C130.483 28.77 131.805 27.6796 134.009 27.6796C134.782 27.6796 135.478 27.7415 135.912 27.873Z" fill="white"/>
<path d="M81.0627 28.0044V45.1333H76.1753V43.2464C75.17 44.6383 73.3837 45.6591 70.5147 45.6591C66.1378 45.6591 63.5781 42.9138 63.5781 38.7457V27.9967H69.0068V38.8772C69.0068 40.4625 70.3601 41.5528 72.1851 41.5528C74.2421 41.5528 75.634 40.4625 75.634 38.8772V27.9967H81.0627V28.0044Z" fill="white"/>
<path d="M17.5879 50.5C27.2529 50.5 35.0879 42.665 35.0879 33C35.0879 23.335 27.2529 15.5 17.5879 15.5C7.92291 15.5 0.0878906 23.335 0.0878906 33C0.0878906 42.665 7.92291 50.5 17.5879 50.5Z" fill="#CDCDCD"/>
<path d="M18.8018 49.9664C28.3087 49.9664 36.0156 42.2595 36.0156 32.7525C36.0156 23.2456 28.3087 15.5387 18.8018 15.5387C9.29481 15.5387 1.58789 23.2456 1.58789 32.7525C1.58789 42.2595 9.29481 49.9664 18.8018 49.9664Z" fill="black"/>
<path d="M7.65745 36.6655C4.81941 28.5766 8.37663 19.7918 15.6767 15.8248C14.7719 15.9872 13.8749 16.2192 12.9856 16.5285C3.9997 19.6836 -0.725225 29.5201 2.42988 38.4982C5.58498 47.4841 15.4215 52.209 24.3996 49.0539C25.2889 48.7446 26.1396 48.3579 26.9438 47.9249C18.7622 49.3941 10.4955 44.7543 7.65745 36.6655Z" fill="white"/>
</svg>
