<svg width="40" height="40" viewBox="0 0 40 40" fill="none" xmlns="http://www.w3.org/2000/svg">
<path d="M17.4609 9.62793L17.4766 9.8623L17.5342 10.7461L17.5469 10.9531L17.3467 11.0049L16.4434 11.2363L17.9443 14.5205L19.3779 11.2383L18.4707 11.0049L18.2705 10.9531L18.2842 10.7461L18.3418 9.8623L18.3574 9.62793H22.2852L22.2998 9.8623L22.3574 10.7461L22.3701 10.9375L22.1885 10.999L21.3809 11.2734L18.0859 17.8066L18.0869 17.8076L16.5684 20.998C16.2306 21.7125 15.862 22.2335 15.4492 22.5156L15.4502 22.5166C15.0525 22.8006 14.6174 22.9473 14.1514 22.9473C13.6749 22.9472 13.2663 22.8273 12.9531 22.5615L12.8486 22.4648C12.6209 22.2328 12.4991 21.9488 12.499 21.6211C12.499 21.2575 12.6356 20.9343 12.8936 20.6611L12.8984 20.6562L13.0059 20.5576C13.2695 20.336 13.6219 20.1715 14.0459 20.0537L15.2383 19.7168L16.1973 17.9473L12.9912 11.2725L12.1875 10.999L12.0068 10.9375L12.0186 10.7461L12.0762 9.8623L12.0918 9.62793H17.4609ZM7.00195 11.1465C6.48134 11.1465 6.05216 11.3579 5.69922 11.8018C5.36061 12.2436 5.17676 12.8681 5.17676 13.7031C5.1768 14.6182 5.36865 15.2849 5.71777 15.7373L5.85938 15.8994C6.19486 16.2507 6.56791 16.4121 6.9834 16.4121C7.13722 16.412 7.32919 16.3642 7.56348 16.2471L7.56738 16.2441L7.72852 16.1523C7.86975 16.0565 7.99758 15.9242 8.11621 15.7549V11.6387C7.97335 11.4633 7.8175 11.3482 7.64648 11.2852L7.63574 11.2812C7.42038 11.1906 7.20932 11.1465 7.00195 11.1465ZM12.4414 17.8721L12.2568 17.9219L8.98926 18.8066L8.8916 18.833L8.80273 18.7832L8.28418 18.4951L8.15332 18.4229L8.15527 18.2734L8.16309 17.7422C7.93479 18.019 7.68685 18.2392 7.41602 18.3965L7.41113 18.4004C6.97984 18.6369 6.52833 18.7578 6.06055 18.7578C5.42724 18.7578 4.83329 18.6159 4.28223 18.333L4.04883 18.2031C3.4332 17.8338 2.94131 17.3208 2.5752 16.6699L2.57422 16.668C2.20515 15.9982 2.02441 15.231 2.02441 14.375C2.02447 13.626 2.16487 12.9476 2.45215 12.3457C2.73467 11.741 3.11378 11.2265 3.58887 10.8057C4.05939 10.3762 4.58527 10.052 5.16602 9.83594C5.74384 9.60814 6.33716 9.49416 6.94434 9.49414C7.20539 9.49414 7.47195 9.52095 7.74316 9.5752H7.74219C7.85897 9.59311 7.96936 9.61728 8.07324 9.64648C8.07009 9.51025 8.0661 9.36701 8.05957 9.2168L8.05859 9.20605L8.05469 8.75488C8.05152 8.60611 8.04636 8.45898 8.04004 8.31348V8.30273L8.03516 7.87109C8.03201 7.73556 8.02677 7.60831 8.02051 7.48926V7.47559L8.01562 7.14844C8.01526 7.13743 8.01408 7.12671 8.01367 7.11621L6.79199 6.93555L6.58887 6.90527L6.5791 6.69922L6.54102 5.87305L6.53125 5.6709L6.72852 5.62012L10.3604 4.67773L10.4629 4.65137L10.5527 4.70605L11.0908 5.0332L11.2178 5.11035L11.2109 5.25879L11.0957 7.4707C11.0576 8.13165 11.0381 8.83244 11.0381 9.57129V9.57227L11.0186 14.0303C11.0186 14.6537 11.0379 15.1571 11.0752 15.543C11.1056 15.8576 11.1319 16.1363 11.1543 16.3789L12.2432 16.6104L12.4414 16.6523V17.8721Z" fill="url(#paint0_linear_31_393)" stroke="url(#paint1_linear_31_393)" stroke-width="0.5"/>
<path d="M30.7221 2.90647L30.5845 3.18676L13.6816 37.6517L13.5942 37.8316L10.5225 37.0935L10.6601 36.8133L27.5629 2.34833L27.6513 2.16868L30.7221 2.90647Z" fill="url(#paint2_linear_31_393)" stroke="url(#paint3_linear_31_393)" stroke-width="0.5"/>
<path d="M34.835 24.8682L34.8311 25.1221L34.8066 26.8672H37.4834V28.5781H34.7861L34.7539 32.3857C34.7543 32.889 34.8754 33.1979 35.0605 33.374C35.2572 33.5485 35.5476 33.6513 35.9648 33.6514C36.1726 33.6514 36.3749 33.6136 36.5732 33.5381C36.7817 33.4454 36.9582 33.3324 37.1025 33.1992L37.2852 33.0303L37.4551 33.2129L37.9551 33.751L38.0576 33.8613L38.0078 34.0029C37.7965 34.6088 37.4071 35.0943 36.8506 35.4561L36.8496 35.457C36.3073 35.8046 35.6961 35.9775 35.0234 35.9775C34.0877 35.9775 33.295 35.7046 32.666 35.1455L32.6621 35.1416C32.0319 34.5544 31.7364 33.6962 31.7363 32.6143V32.6104L31.791 28.5781H30.4492V27.6113L30.5439 27.5371L33.8301 24.9229L33.8984 24.8682H34.835ZM25.2217 28.3662C24.7011 28.3663 24.2719 28.5776 23.9189 29.0215C23.5803 29.4633 23.3965 30.0878 23.3965 30.9229C23.3965 31.838 23.5884 32.5046 23.9375 32.957L24.0791 33.1191C24.4146 33.4704 24.7876 33.6318 25.2031 33.6318C25.357 33.6317 25.5489 33.5839 25.7832 33.4668L25.7871 33.4639L25.9482 33.3721C26.0895 33.2762 26.2173 33.1439 26.3359 32.9746V28.8584C26.1931 28.6831 26.0372 28.568 25.8662 28.5049L25.8555 28.501C25.6401 28.4103 25.4291 28.3662 25.2217 28.3662ZM30.6611 35.0918L30.4766 35.1416L27.209 36.0264L27.1113 36.0527L27.0225 36.0029L26.5039 35.7148L26.373 35.6426L26.375 35.4932L26.3828 34.9619C26.1545 35.2387 25.9066 35.4589 25.6357 35.6162L25.6309 35.6201C25.1996 35.8566 24.7481 35.9775 24.2803 35.9775C23.647 35.9775 23.053 35.8356 22.502 35.5527L22.2686 35.4229C21.6529 35.0535 21.161 34.5405 20.7949 33.8896L20.7939 33.8877C20.4249 33.2179 20.2441 32.4508 20.2441 31.5947C20.2442 30.8457 20.3846 30.1673 20.6719 29.5654C20.9544 28.9607 21.3335 28.4462 21.8086 28.0254C22.2791 27.5959 22.805 27.2718 23.3857 27.0557C23.9636 26.8279 24.5569 26.7139 25.1641 26.7139C25.4251 26.7139 25.6917 26.7407 25.9629 26.7949H25.9619C26.0787 26.8128 26.1891 26.837 26.293 26.8662C26.2898 26.73 26.2858 26.5867 26.2793 26.4365L26.2783 26.4258L26.2744 25.9746C26.2713 25.8258 26.2661 25.6787 26.2598 25.5332V25.5225L26.2549 25.0908C26.2517 24.9553 26.2465 24.828 26.2402 24.709V24.6953L26.2354 24.3682C26.235 24.3572 26.2338 24.3464 26.2334 24.3359L25.0117 24.1553L24.8086 24.125L24.7988 23.9189L24.7607 23.0928L24.751 22.8906L24.9482 22.8398L28.5801 21.8975L28.6826 21.8711L28.7725 21.9258L29.3105 22.2529L29.4375 22.3301L29.4307 22.4785L29.3154 24.6904C29.2773 25.3514 29.2578 26.0522 29.2578 26.791V26.792L29.2383 31.25C29.2383 31.8734 29.2576 32.3768 29.2949 32.7627C29.3254 33.0773 29.3516 33.356 29.374 33.5986L30.4629 33.8301L30.6611 33.8721V35.0918Z" fill="url(#paint4_linear_31_393)" stroke="url(#paint5_linear_31_393)" stroke-width="0.5"/>
<defs>
<linearGradient id="paint0_linear_31_393" x1="2.27441" y1="13.8085" x2="22.1083" y2="13.8085" gradientUnits="userSpaceOnUse">
<stop stop-color="#4DB1DD"/>
<stop offset="0.24" stop-color="#4DB1DD"/>
<stop offset="1" stop-color="#69C3E2"/>
</linearGradient>
<linearGradient id="paint1_linear_31_393" x1="2.27441" y1="13.8085" x2="22.1083" y2="13.8085" gradientUnits="userSpaceOnUse">
<stop stop-color="#4DB1DD"/>
<stop offset="0.24" stop-color="#4DB1DD"/>
<stop offset="1" stop-color="#69C3E2"/>
</linearGradient>
<linearGradient id="paint2_linear_31_393" x1="15.2602" y1="18.7117" x2="25.9847" y2="21.2883" gradientUnits="userSpaceOnUse">
<stop stop-color="#4DB1DD"/>
<stop offset="0.24" stop-color="#4DB1DD"/>
<stop offset="1" stop-color="#69C3E2"/>
</linearGradient>
<linearGradient id="paint3_linear_31_393" x1="15.2602" y1="18.7117" x2="25.9847" y2="21.2883" gradientUnits="userSpaceOnUse">
<stop stop-color="#4DB1DD"/>
<stop offset="0.24" stop-color="#4DB1DD"/>
<stop offset="1" stop-color="#69C3E2"/>
</linearGradient>
<linearGradient id="paint4_linear_31_393" x1="20.4941" y1="28.9622" x2="37.7715" y2="28.9622" gradientUnits="userSpaceOnUse">
<stop stop-color="#4DB1DD"/>
<stop offset="0.24" stop-color="#4DB1DD"/>
<stop offset="1" stop-color="#69C3E2"/>
</linearGradient>
<linearGradient id="paint5_linear_31_393" x1="20.4941" y1="28.9622" x2="37.7715" y2="28.9622" gradientUnits="userSpaceOnUse">
<stop stop-color="#4DB1DD"/>
<stop offset="0.24" stop-color="#4DB1DD"/>
<stop offset="1" stop-color="#69C3E2"/>
</linearGradient>
</defs>
</svg>
