<svg width="40" height="40" viewBox="0 0 40 40" fill="none" xmlns="http://www.w3.org/2000/svg">
<path d="M32.2663 28.4922L32.323 28.5947C32.4476 28.8363 32.5109 29.0976 32.4978 29.3721C32.4844 29.6515 32.4108 29.9165 32.2751 30.1602C32.1346 30.4125 31.9363 30.6159 31.6892 30.7666C31.432 30.9234 31.1463 30.9999 30.8445 31H9.15502C8.85318 30.9999 8.56746 30.9234 8.31029 30.7666C8.06323 30.6159 7.86488 30.4125 7.72436 30.1602C7.5887 29.9165 7.51508 29.6515 7.5017 29.3721C7.48673 29.0584 7.57109 28.7617 7.73315 28.4922L9.46673 25.5H13.3031L12.0417 27.667H27.9578H31.7883L32.2663 28.4922Z" fill="url(#paint0_linear_31_513)"/>
<path d="M19.9997 9C20.2815 9 20.551 9.07107 20.8025 9.20312C21.0073 9.31072 21.18 9.45775 21.321 9.63672L21.4509 9.8252L21.4558 9.83301L23.8672 13.9951H19.9997L17.0865 19H13.2326L18.5437 9.83301L18.5486 9.8252L18.6785 9.63672C18.8195 9.45774 18.9922 9.31072 19.197 9.20312C19.4485 9.07107 19.718 9 19.9997 9Z" fill="url(#paint1_linear_31_513)"/>
<path d="M1 22.25C1 21.2835 1.7835 20.5 2.75 20.5H16.2003L14.1709 24H2.75C1.7835 24 1 23.2165 1 22.25Z" fill="url(#paint2_linear_31_513)"/>
<path d="M35 15.75C35 14.7835 34.2165 14 33.25 14H20L22.0456 17.5H33.25C34.2165 17.5 35 16.7165 35 15.75Z" fill="url(#paint3_linear_31_513)"/>
<path d="M37 20.8501C37 19.8836 36.2165 19.1001 35.25 19.1001H22.9102L24.9492 22.6001H35.25C36.2165 22.6001 37 21.8166 37 20.8501Z" fill="url(#paint4_linear_31_513)"/>
<path d="M39 25.95C39 24.9835 38.2165 24.2 37.25 24.2H25.8369L27.8656 27.7H37.25C38.2165 27.7 39 26.9164 39 25.95Z" fill="url(#paint5_linear_31_513)"/>
<defs>
<linearGradient id="paint0_linear_31_513" x1="7.5" y1="20" x2="32.4995" y2="20" gradientUnits="userSpaceOnUse">
<stop stop-color="#4DB1DD"/>
<stop offset="0.24" stop-color="#4DB1DD"/>
<stop offset="1" stop-color="#69C3E2"/>
</linearGradient>
<linearGradient id="paint1_linear_31_513" x1="7.5" y1="20" x2="32.4995" y2="20" gradientUnits="userSpaceOnUse">
<stop stop-color="#4DB1DD"/>
<stop offset="0.24" stop-color="#4DB1DD"/>
<stop offset="1" stop-color="#69C3E2"/>
</linearGradient>
<linearGradient id="paint2_linear_31_513" x1="1" y1="22.25" x2="16.2003" y2="22.25" gradientUnits="userSpaceOnUse">
<stop stop-color="#4DB1DD"/>
<stop offset="0.24" stop-color="#4DB1DD"/>
<stop offset="1" stop-color="#69C3E2"/>
</linearGradient>
<linearGradient id="paint3_linear_31_513" x1="35" y1="15.75" x2="20" y2="15.75" gradientUnits="userSpaceOnUse">
<stop stop-color="#4DB1DD"/>
<stop offset="0.24" stop-color="#4DB1DD"/>
<stop offset="1" stop-color="#69C3E2"/>
</linearGradient>
<linearGradient id="paint4_linear_31_513" x1="37" y1="20.8501" x2="22.9102" y2="20.8501" gradientUnits="userSpaceOnUse">
<stop stop-color="#4DB1DD"/>
<stop offset="0.24" stop-color="#4DB1DD"/>
<stop offset="1" stop-color="#69C3E2"/>
</linearGradient>
<linearGradient id="paint5_linear_31_513" x1="39" y1="25.95" x2="25.8369" y2="25.95" gradientUnits="userSpaceOnUse">
<stop stop-color="#4DB1DD"/>
<stop offset="0.24" stop-color="#4DB1DD"/>
<stop offset="1" stop-color="#69C3E2"/>
</linearGradient>
</defs>
</svg>
