<svg width="40" height="40" viewBox="0 0 40 40" fill="none" xmlns="http://www.w3.org/2000/svg">
<path d="M29.1621 24.6626C29.1621 23.4048 28.727 22.3515 27.8496 21.4741C26.9723 20.5969 25.9197 20.1627 24.6621 20.1626C23.4043 20.1626 22.351 20.5967 21.4736 21.4741C20.5962 22.3515 20.1621 23.4048 20.1621 24.6626C20.1622 25.9202 20.5964 26.9728 21.4736 27.8501C22.351 28.7275 23.4043 29.1626 24.6621 29.1626C25.9197 29.1625 26.9723 28.7274 27.8496 27.8501C28.7269 26.9728 29.162 25.9202 29.1621 24.6626ZM28.6729 23.272L24.0537 27.9243L23.6992 27.5728L20.6475 24.5532L22.5225 22.6772L24.0225 24.1772L26.8008 21.3999L28.6729 23.272ZM32.3838 24.6626C32.3837 25.5311 32.2456 26.3568 31.9658 27.1362C31.7431 27.7567 31.4532 28.3236 31.0977 28.8354L38.1465 35.8843L35.8838 38.147L28.835 31.0981C28.3231 31.4537 27.7562 31.7436 27.1357 31.9663C26.3563 32.246 25.5306 32.3842 24.6621 32.3843C22.5143 32.3843 20.6776 31.6349 19.1836 30.1411C17.6896 28.6471 16.9396 26.8104 16.9395 24.6626C16.9395 22.5146 17.6895 20.6782 19.1836 19.1841C20.6777 17.69 22.5141 16.9399 24.6621 16.9399C26.8099 16.94 28.6466 17.6901 30.1406 19.1841C31.6344 20.6781 32.3838 22.5148 32.3838 24.6626Z" fill="url(#paint0_linear_31_366)"/>
<path d="M31.1064 12.4399V18.0327C30.1198 17.0713 29.0021 16.3758 27.7725 15.9487V14.1069H19.4395V5.77295H7.77246V32.4399H19.6455C21.1166 33.3989 22.8042 33.8843 24.6621 33.8843L25.0469 33.8765C25.9411 33.8403 26.8096 33.6774 27.6426 33.3784L27.917 33.2749C28.1473 33.184 28.3715 33.0831 28.5908 32.9751L30.2637 34.6479C30.2195 34.697 30.1746 34.7467 30.127 34.7944C29.4742 35.4471 28.6891 35.7729 27.7725 35.7729H7.77246C6.85609 35.7729 6.07158 35.4469 5.41895 34.7944C4.76617 34.1417 4.43945 33.3566 4.43945 32.4399V5.77295C4.43953 4.85642 4.76624 4.07213 5.41895 3.41943C6.07165 2.76673 6.85593 2.44002 7.77246 2.43994H21.1064L31.1064 12.4399Z" fill="url(#paint1_linear_31_366)"/>
<path d="M15.502 25.7729C15.6333 26.9697 15.9799 28.0855 16.541 29.1069H11.1064V25.7729H15.502Z" fill="url(#paint2_linear_31_366)"/>
<path d="M17.2646 19.1069C16.5002 20.1113 15.9744 21.2275 15.6904 22.4399H11.1064V19.1069H17.2646Z" fill="url(#paint3_linear_31_366)"/>
<defs>
<linearGradient id="paint0_linear_31_366" x1="16.9395" y1="27.5435" x2="38.1465" y2="27.5435" gradientUnits="userSpaceOnUse">
<stop stop-color="#4DB1DD"/>
<stop offset="0.24" stop-color="#4DB1DD"/>
<stop offset="1" stop-color="#69C3E2"/>
</linearGradient>
<linearGradient id="paint1_linear_31_366" x1="4.43945" y1="19.1064" x2="31.1064" y2="19.1064" gradientUnits="userSpaceOnUse">
<stop stop-color="#4DB1DD"/>
<stop offset="0.24" stop-color="#4DB1DD"/>
<stop offset="1" stop-color="#69C3E2"/>
</linearGradient>
<linearGradient id="paint2_linear_31_366" x1="4.43945" y1="19.1064" x2="31.1064" y2="19.1064" gradientUnits="userSpaceOnUse">
<stop stop-color="#4DB1DD"/>
<stop offset="0.24" stop-color="#4DB1DD"/>
<stop offset="1" stop-color="#69C3E2"/>
</linearGradient>
<linearGradient id="paint3_linear_31_366" x1="4.43945" y1="19.1064" x2="31.1064" y2="19.1064" gradientUnits="userSpaceOnUse">
<stop stop-color="#4DB1DD"/>
<stop offset="0.24" stop-color="#4DB1DD"/>
<stop offset="1" stop-color="#69C3E2"/>
</linearGradient>
</defs>
</svg>
