<svg width="40" height="40" viewBox="0 0 40 40" fill="none" xmlns="http://www.w3.org/2000/svg">
<path d="M16.6886 18.3921L13.1716 11.0698L12.2684 10.7623L12.326 9.87829H17.2268L17.2844 10.7623L16.0929 11.0698L18.2453 15.7784L16.6886 18.3921ZM22.0506 9.87829L22.1083 10.7623L21.205 11.0698L17.861 17.7002L16.3427 20.8905C16.0096 21.5952 15.6636 22.0693 15.3049 22.3127C14.9462 22.5689 14.5618 22.6971 14.1518 22.6971C13.7162 22.6971 13.3702 22.5882 13.114 22.3703C12.8706 22.1653 12.7488 21.9155 12.7488 21.6208C12.7488 21.3261 12.8577 21.0635 13.0755 20.8329C13.3062 20.6022 13.6521 20.4229 14.1133 20.2947L16.3619 19.6605L15.0743 20.5446L17.4189 16.2204L17.6688 15.7784L19.7252 11.0698L18.5336 10.7623L18.5913 9.87829H22.0506Z" />
<path d="M8.92403 18.5651L8.40513 18.2768L8.42435 17.0276L8.36669 17.0084C8.04638 17.5593 7.68764 17.9501 7.29045 18.1807C6.89327 18.3985 6.48328 18.5074 6.06047 18.5074C5.38141 18.5074 4.75361 18.3345 4.17705 17.9885C3.60049 17.6426 3.13925 17.1621 2.79331 16.5471C2.44738 15.9193 2.27441 15.1954 2.27441 14.3754C2.27441 13.6579 2.40894 13.0173 2.678 12.4536C2.94706 11.877 3.30581 11.3902 3.75424 10.993C4.20267 10.583 4.70236 10.2755 5.25329 10.0705C5.80422 9.85268 6.36796 9.74377 6.94452 9.74377C7.18795 9.74377 7.4378 9.7694 7.69404 9.82064C7.95029 9.85908 8.16169 9.92314 8.32826 10.0128C8.32826 9.7694 8.32185 9.50034 8.30904 9.20565C8.30904 8.89815 8.30263 8.59706 8.28982 8.30238C8.28982 7.99488 8.28341 7.71942 8.2706 7.47598C8.2706 7.21974 8.26419 7.02755 8.25138 6.89943L6.82921 6.68802L6.79077 5.86163L10.4231 4.91992L10.9612 5.24663C10.9228 6.041 10.8843 6.77771 10.8459 7.45676C10.8074 8.12301 10.7882 8.82769 10.7882 9.5708L10.769 14.0295C10.769 14.6573 10.7882 15.1698 10.8267 15.567C10.8651 15.9642 10.8971 16.3037 10.9228 16.5856L12.1912 16.8546V17.681L8.92403 18.5651ZM6.98296 16.6624C7.18796 16.6624 7.41858 16.5984 7.67482 16.4703C7.94388 16.3421 8.17451 16.1307 8.36669 15.836V11.5503C8.18732 11.3069 7.97592 11.1403 7.73248 11.0506C7.48905 10.9481 7.24561 10.8969 7.00218 10.8969C6.39999 10.8969 5.90031 11.1467 5.50313 11.6464C5.11876 12.1461 4.92657 12.8315 4.92657 13.7028C4.92657 14.6509 5.12516 15.3812 5.52235 15.8937C5.93234 16.4062 6.41921 16.6624 6.98296 16.6624Z" />
<path d="M10.8848 36.9234L27.7874 2.4585L30.3602 3.07663L13.4575 37.5415L10.8848 36.9234Z" />
<path d="M37.7715 33.9207C37.5794 34.4716 37.227 34.9136 36.7145 35.2467C36.2148 35.5671 35.6511 35.7272 35.0233 35.7272C34.1392 35.7272 33.4089 35.471 32.8324 34.9585C32.2686 34.4332 31.9868 33.6516 31.9868 32.6138L32.0444 28.3281H30.6991V27.7323L33.9855 25.1186H34.5813L34.5428 27.8284L34.5044 32.3832C34.5044 32.9213 34.6325 33.3121 34.8888 33.5555C35.145 33.7861 35.5037 33.9015 35.965 33.9015C36.2084 33.9015 36.4455 33.8566 36.6761 33.7669C36.9067 33.6644 37.1053 33.5363 37.2719 33.3826L37.7715 33.9207ZM33.5627 28.3281V27.1173H37.2334V28.3281H33.5627Z" />
<path d="M27.1438 35.7848L26.6249 35.4965L26.6441 34.2473L26.5864 34.2281C26.2661 34.779 25.9074 35.1698 25.5102 35.4004C25.113 35.6182 24.703 35.7272 24.2802 35.7272C23.6011 35.7272 22.9733 35.5542 22.3968 35.2083C21.8202 34.8623 21.359 34.3819 21.013 33.7669C20.6671 33.1391 20.4941 32.4152 20.4941 31.5952C20.4941 30.8777 20.6287 30.2371 20.8977 29.6733C21.1668 29.0968 21.5255 28.6099 21.974 28.2127C22.4224 27.8027 22.9221 27.4952 23.473 27.2902C24.0239 27.0724 24.5877 26.9635 25.1642 26.9635C25.4077 26.9635 25.6575 26.9891 25.9138 27.0404C26.17 27.0788 26.3814 27.1429 26.548 27.2326C26.548 26.9891 26.5416 26.7201 26.5288 26.4254C26.5288 26.1179 26.5224 25.8168 26.5095 25.5221C26.5095 25.2146 26.5031 24.9391 26.4903 24.6957C26.4903 24.4395 26.4839 24.2473 26.4711 24.1192L25.0489 23.9077L25.0105 23.0814L28.6428 22.1396L29.1809 22.4664C29.1425 23.2607 29.104 23.9974 29.0656 24.6765C29.0272 25.3427 29.008 26.0474 29.008 26.7905L28.9887 31.2492C28.9887 31.877 29.008 32.3895 29.0464 32.7867C29.0848 33.1839 29.1169 33.5234 29.1425 33.8053L30.4109 34.0744V34.9008L27.1438 35.7848ZM25.2027 33.8822C25.4077 33.8822 25.6383 33.8181 25.8946 33.69C26.1636 33.5619 26.3942 33.3505 26.5864 33.0558V28.77C26.407 28.5266 26.1956 28.36 25.9522 28.2704C25.7088 28.1679 25.4653 28.1166 25.2219 28.1166C24.6197 28.1166 24.12 28.3665 23.7229 28.8661C23.3385 29.3658 23.1463 30.0513 23.1463 30.9225C23.1463 31.8706 23.3449 32.6009 23.7421 33.1134C24.1521 33.6259 24.6389 33.8822 25.2027 33.8822Z" />
<path d="M31.084 2.73584L13.9062 37.7612L13.7305 38.1216L10.1611 37.2642L27.3389 2.23877L27.5146 1.87842L31.084 2.73584ZM10.8848 36.9234L13.4575 37.5415L30.3602 3.07663L27.7874 2.4585L10.8848 36.9234ZM19.9941 31.5952C19.9941 30.8143 20.1407 30.0978 20.4463 29.4575C20.7412 28.827 21.1377 28.2867 21.6367 27.8433L21.8252 27.6792C22.207 27.3611 22.6226 27.105 23.0713 26.9126L23.2988 26.8218C23.9036 26.584 24.5262 26.4634 25.1641 26.4634C25.4427 26.4634 25.7256 26.4931 26.0117 26.5503C26.0189 26.5514 26.0251 26.553 26.0322 26.5542C26.0309 26.5189 26.0309 26.4829 26.0293 26.4468L26.0283 26.436V26.4253C26.0283 26.1248 26.0222 25.8306 26.0098 25.5435V25.522C26.0098 25.2212 26.0035 24.9549 25.9912 24.7222L25.9902 24.7085V24.6958C25.9902 24.6447 25.9878 24.5968 25.9873 24.5522L24.9756 24.4019L24.5684 24.3423L24.5498 23.9312L24.5107 23.105L24.4922 22.6987L28.7217 21.603L29.4404 22.0386L29.6943 22.1938L29.6807 22.4907C29.6422 23.2861 29.603 24.0241 29.5645 24.7046C29.5266 25.3602 29.5078 26.0561 29.5078 26.7905V26.7925L29.4883 31.2515C29.4883 31.8701 29.5077 32.3644 29.5439 32.7388C29.567 32.9771 29.587 33.1949 29.6055 33.3921L30.9111 33.6694V35.2837L27.2744 36.2671L27.0781 36.3208L26.9014 36.2222L26.3818 35.9341L26.1201 35.7886L26.123 35.5796C26.0077 35.6749 25.8874 35.7595 25.7617 35.8325L25.751 35.8394L25.75 35.8384C25.2846 36.0935 24.793 36.227 24.2803 36.2271C23.5116 36.2271 22.7947 36.0302 22.1396 35.6372C21.485 35.2444 20.9635 34.6989 20.5771 34.0122L20.5752 34.0083C20.183 33.2965 19.9941 32.4873 19.9941 31.5952ZM37.2334 28.3281V27.1173L34.5527 27.1177L34.5813 25.1186H33.9855L30.6991 27.7323V28.3281H32.0444L31.9868 32.6138L32 32.9907C32.0616 33.8428 32.3392 34.4988 32.8324 34.9585C33.3369 35.407 33.9592 35.6593 34.6992 35.7153L35.0233 35.7272C35.5727 35.7272 36.0731 35.6043 36.5244 35.3589L36.7145 35.2467C37.1627 34.9553 37.4892 34.5806 37.6924 34.1226L37.7715 33.9207L37.2719 33.3826C37.1053 33.5363 36.9067 33.6644 36.6761 33.7669L36.502 33.8257C36.3266 33.8761 36.1476 33.9015 35.965 33.9015L35.9648 33.4019C36.1404 33.4019 36.3112 33.3692 36.4805 33.3052C36.6631 33.2231 36.8123 33.1262 36.9326 33.0151L37.2988 32.6772L37.6387 33.0425L38.3428 33.8013L38.2432 34.0854C38.0127 34.746 37.5877 35.2752 36.9873 35.6655L36.9844 35.6675C36.3995 36.0424 35.741 36.227 35.0234 36.2271C34.036 36.2271 33.1814 35.9382 32.5 35.3325L32.4912 35.3247C31.7944 34.6754 31.4863 33.7402 31.4863 32.6138V32.6069L31.5381 28.8276H30.1992V27.4907L30.3877 27.3413L33.6738 24.7271L33.8105 24.6187H35.0889L35.0811 25.1255L35.0605 26.6177H37.7334V28.8276H35.0342L35.0039 32.3872C35.0045 32.8511 35.1161 33.0785 35.2295 33.189C35.3672 33.3098 35.5903 33.4018 35.9648 33.4019L35.965 33.9015L35.7969 33.896C35.4699 33.8744 35.2007 33.7878 34.9893 33.6362L34.8888 33.5555C34.6646 33.3424 34.5387 33.0163 34.5107 32.5776L34.5044 32.3832L34.5391 28.3276L37.2334 28.3281ZM23.1463 30.9225C23.1463 30.0513 23.3385 29.3658 23.7229 28.8661C24.12 28.3665 24.6197 28.1166 25.2219 28.1166L25.4043 28.1265C25.5869 28.1457 25.7696 28.1935 25.9522 28.2704C26.1956 28.36 26.407 28.5266 26.5864 28.77V33.0558C26.3942 33.3505 26.1636 33.5619 25.8946 33.69C25.6383 33.8181 25.4077 33.8822 25.2027 33.8822L25.2031 33.3823C25.3059 33.3822 25.4584 33.3489 25.6709 33.2427L25.6797 33.2388L25.8076 33.1655C25.9046 33.0998 25.9961 33.0094 26.0859 32.8931V28.9487C25.9855 28.8428 25.8826 28.7778 25.7793 28.7397L25.7686 28.7358L25.7578 28.731C25.5707 28.6522 25.3929 28.6167 25.2217 28.6167C24.7845 28.6168 24.4269 28.787 24.1191 29.1714L24.0137 29.3237C23.7818 29.7002 23.6465 30.2205 23.6465 30.9224C23.6465 31.8079 23.8332 32.4126 24.1367 32.8052C24.4682 33.2176 24.8186 33.3823 25.2031 33.3823L25.2027 33.8822L24.9951 33.8706C24.5866 33.8226 24.2214 33.6299 23.8994 33.2935L23.7421 33.1134C23.3946 32.665 23.1987 32.0499 23.1553 31.2681L23.1463 30.9225ZM17.6953 9.37842L17.8105 11.1431L16.7959 11.4048L17.9395 13.9077L19.0312 11.4067L18.4082 11.2466L18.0078 11.1431L18.123 9.37842H22.5195L22.6074 10.73L22.6318 11.1118L22.2695 11.2358L21.5586 11.4771L18.3076 17.9253L16.7939 21.103L16.7949 21.104C16.4522 21.8289 16.0611 22.3975 15.5947 22.7183L15.5957 22.7192C15.5937 22.7207 15.5909 22.7217 15.5889 22.7231C15.5877 22.7239 15.5871 22.7253 15.5859 22.7261L15.585 22.7251C15.1507 23.0327 14.6697 23.1968 14.1514 23.1968C13.633 23.1967 13.1605 23.0664 12.79 22.7515C12.4454 22.4603 12.249 22.0747 12.249 21.6206C12.2491 21.1881 12.4139 20.8053 12.7119 20.4897L12.7168 20.4839L12.7217 20.479C12.9959 20.2048 13.3641 20.009 13.792 19.8696L13.9795 19.813L15.0684 19.5054L15.917 17.9399L12.8105 11.4751L12.1074 11.2358L11.7441 11.1118L11.7695 10.73L11.8574 9.37842H17.6953ZM1.77441 14.3755C1.77441 13.5945 1.92095 12.8781 2.22656 12.2378C2.52144 11.6073 2.91793 11.067 3.41699 10.6235L3.60547 10.4595C3.9873 10.1414 4.40287 9.88523 4.85156 9.69287L5.0791 9.60205C5.68387 9.36426 6.30652 9.24368 6.94434 9.24365C7.22299 9.24365 7.50583 9.27334 7.79199 9.33057C7.79919 9.33169 7.80533 9.3333 7.8125 9.33447C7.81113 9.29921 7.81114 9.26316 7.80957 9.22705L7.80859 9.21631V9.20557C7.80859 8.90504 7.80252 8.61085 7.79004 8.32373V8.30225C7.79004 8.00151 7.78373 7.73514 7.77148 7.50244L7.77051 7.48877V7.47607C7.77051 7.42497 7.76809 7.37711 7.76758 7.33252L6.75586 7.18213L6.34863 7.12256L6.33008 6.71143L6.29102 5.88525L6.27246 5.479L10.502 4.3833L11.2207 4.81885L11.4746 4.97412L11.4609 5.271C11.4225 6.06638 11.3832 6.80433 11.3447 7.48486C11.3069 8.14043 11.2881 8.83634 11.2881 9.5708V9.57275L11.2686 14.0317C11.2686 14.6504 11.288 15.1447 11.3242 15.519C11.3473 15.7573 11.3673 15.9752 11.3857 16.1724L12.6914 16.4497V18.064L9.05469 19.0474L8.8584 19.1011L8.68164 19.0024L8.16211 18.7144L7.90039 18.5688L7.90332 18.3599C7.78794 18.4551 7.66766 18.5398 7.54199 18.6128L7.53125 18.6196L7.53027 18.6187C7.06492 18.8738 6.57324 19.0073 6.06055 19.0073C5.29189 19.0073 4.57495 18.8105 3.91992 18.4175C3.34711 18.0738 2.87628 17.6132 2.50879 17.0435L2.35742 16.7925L2.35547 16.7886C1.96327 16.0768 1.77442 15.2676 1.77441 14.3755ZM4.92657 13.7028C4.92657 12.8315 5.11876 12.1461 5.50313 11.6464C5.90031 11.1467 6.39999 10.8969 7.00218 10.8969L7.18457 10.9067C7.36714 10.9259 7.54991 10.9738 7.73248 11.0506C7.97592 11.1403 8.18732 11.3069 8.36669 11.5503V15.836C8.17451 16.1307 7.94388 16.3421 7.67482 16.4703C7.41858 16.5984 7.18796 16.6624 6.98296 16.6624L6.9834 16.1626C7.0862 16.1625 7.23871 16.1292 7.45117 16.0229L7.45996 16.019L7.58789 15.9458C7.68484 15.88 7.7764 15.7897 7.86621 15.6733V11.729C7.79903 11.6581 7.73084 11.6054 7.66211 11.5669L7.55957 11.52L7.54883 11.5161L7.53809 11.5112C7.35095 11.4325 7.17314 11.397 7.00195 11.397C6.56482 11.397 6.20719 11.5673 5.89941 11.9517L5.79395 12.104C5.56206 12.4805 5.42678 13.0007 5.42676 13.7026C5.42676 14.5881 5.6135 15.1929 5.91699 15.5854C6.2485 15.9978 6.59889 16.1626 6.9834 16.1626L6.98296 16.6624L6.77539 16.6509C6.36685 16.6029 6.00169 16.4102 5.67969 16.0737L5.52235 15.8937C5.17484 15.4453 4.97901 14.8302 4.93555 14.0483L4.92657 13.7028ZM20.502 31.8979C20.5398 32.5945 20.7103 33.2175 21.013 33.7669C21.359 34.3819 21.8202 34.8623 22.3968 35.2083C22.9014 35.511 23.4452 35.6815 24.0283 35.7192L24.2802 35.7272C24.65 35.7271 25.0101 35.6437 25.3604 35.4771L25.5102 35.4004C25.9074 35.1698 26.2661 34.779 26.5864 34.2281L26.6441 34.2473L26.6249 35.4965L27.1438 35.7848L30.4109 34.9008V34.0744L29.1425 33.8053L29.0464 32.7867C29.0176 32.4889 28.9994 32.1262 28.9922 31.6987L28.9887 31.2492L29.008 26.7905C29.008 26.2331 29.0184 25.6973 29.04 25.1831L29.0656 24.6765L29.1809 22.4664L28.6428 22.1396L25.0105 23.0814L25.0489 23.9077L26.4711 24.1192C26.4839 24.2473 26.4903 24.4395 26.4903 24.6957C26.5031 24.9391 26.5095 25.2146 26.5095 25.5221C26.5224 25.8168 26.5288 26.1179 26.5288 26.4254C26.5416 26.7201 26.548 26.9891 26.548 27.2326C26.3814 27.1429 26.17 27.0788 25.9138 27.0404C25.7215 27.0019 25.5328 26.9779 25.3477 26.9683L25.1642 26.9635C24.5877 26.9635 24.0239 27.0724 23.473 27.2902C22.9221 27.4952 22.4224 27.8027 21.974 28.2127C21.5255 28.6099 21.1668 29.0968 20.8977 29.6733C20.6287 30.2371 20.4941 30.8777 20.4941 31.5952L20.502 31.8979ZM12.7549 21.729C12.7815 21.9771 12.9009 22.1909 13.114 22.3703C13.3381 22.5607 13.631 22.668 13.9922 22.6919L14.1518 22.6971C14.5618 22.6971 14.9462 22.5689 15.3049 22.3127C15.6636 22.0693 16.0096 21.5952 16.3427 20.8905L17.861 17.7002L21.205 11.0698L22.1083 10.7623L22.0506 9.87829H18.5913L18.5336 10.7623L19.7252 11.0698L17.9502 15.1333L16.0929 11.0698L17.2844 10.7623L17.2268 9.87829H12.326L12.2684 10.7623L13.1716 11.0698L16.4775 17.9546L15.4072 19.9292L14.1133 20.2947L13.9453 20.3452C13.5672 20.4685 13.2773 20.6311 13.0755 20.8329L12.999 20.9204C12.8322 21.1292 12.7489 21.3629 12.7488 21.6208L12.7549 21.729ZM2.28223 14.6782C2.32004 15.3748 2.49059 15.9977 2.79331 16.5471C3.13925 17.1621 3.60049 17.6426 4.17705 17.9885C4.68165 18.2913 5.22549 18.4617 5.80859 18.4995L6.06047 18.5074C6.43031 18.5074 6.79039 18.424 7.14062 18.2573L7.29045 18.1807C7.68764 17.9501 8.04638 17.5593 8.36669 17.0084L8.42435 17.0276L8.40513 18.2768L8.92403 18.5651L12.1912 17.681V16.8546L10.9228 16.5856L10.8267 15.567C10.7978 15.2692 10.7797 14.9065 10.7725 14.479L10.769 14.0295L10.7882 9.5708C10.7882 9.01337 10.7987 8.47755 10.8203 7.96338L10.8459 7.45676L10.9612 5.24663L10.4231 4.91992L6.79077 5.86163L6.82921 6.68802L8.25138 6.89943C8.26419 7.02755 8.2706 7.21974 8.2706 7.47598C8.28341 7.71942 8.28982 7.99488 8.28982 8.30238C8.30263 8.59706 8.30904 8.89815 8.30904 9.20565C8.32185 9.50034 8.32826 9.7694 8.32826 10.0128C8.16169 9.92314 7.95029 9.85908 7.69404 9.82064C7.50173 9.78218 7.31303 9.75813 7.12793 9.74854L6.94452 9.74377C6.36796 9.74377 5.80422 9.85268 5.25329 10.0705C4.70236 10.2755 4.20267 10.583 3.75424 10.993C3.30581 11.3902 2.94706 11.877 2.678 12.4536C2.40894 13.0173 2.27441 13.6579 2.27441 14.3754L2.28223 14.6782Z" />
</svg>
