<svg width="40" height="40" viewBox="0 0 40 40" fill="none" xmlns="http://www.w3.org/2000/svg">
<path d="M18.701 37.6667C18.2288 37.6667 17.0343 37.6667 17.0343 37.6667C17.0343 37.6667 17.0343 36.4722 17.0343 36V27L5.36765 15.6667C4.95098 15.1111 4.88848 14.5278 5.18015 13.9167C5.47181 13.3056 5.97876 13 6.70098 13H34.0343C34.7565 13 35.2635 13.3056 35.5551 13.9167C35.8468 14.5278 35.7843 15.1111 35.3676 15.6667L23.701 27V36C23.701 36.4722 23.701 37.6667 23.701 37.6667C23.701 37.6667 22.5065 37.6667 22.0343 37.6667H18.701ZM20.3676 25.8333L30.6176 16.3333H10.1176L20.3676 25.8333Z" />
<path d="M14.6667 11H21.3333C21.8056 11 22.2014 11.1597 22.5208 11.4792C22.8403 11.7986 23 12.1944 23 12.6667C23 13.1389 22.8403 13.5347 22.5208 13.8542C22.2014 14.1736 21.8056 14.3333 21.3333 14.3333H14.6667C14.1944 14.3333 13.7986 14.1736 13.4792 13.8542C13.1597 13.5347 13 13.1389 13 12.6667C13 12.1944 13.1597 11.7986 13.4792 11.4792C13.7986 11.1597 14.1944 11 14.6667 11ZM26.3333 14.3333C25.8611 14.3333 25.4653 14.1736 25.1458 13.8542C24.8264 13.5347 24.6667 13.1389 24.6667 12.6667C24.6667 12.1944 24.8264 11.7986 25.1458 11.4792C25.4653 11.1597 25.8611 11 26.3333 11C26.8056 11 27.2014 11.1597 27.5208 11.4792C27.8403 11.7986 28 12.1944 28 12.6667C28 13.1389 27.8403 13.5347 27.5208 13.8542C27.2014 14.1736 26.8056 14.3333 26.3333 14.3333Z" />
<path d="M8 3.66667C8 3.47222 8.08333 3.34028 8.25 3.27083C8.41667 3.20139 8.56944 3.23611 8.70833 3.375L9.91667 4.58333C10.0833 4.75 10.2778 4.83333 10.5 4.83333C10.7222 4.83333 10.9167 4.75 11.0833 4.58333L12.4167 3.25C12.5833 3.08333 12.7778 3 13 3C13.2222 3 13.4167 3.08333 13.5833 3.25L14.9167 4.58333C15.0833 4.75 15.2778 4.83333 15.5 4.83333C15.7222 4.83333 15.9167 4.75 16.0833 4.58333L17.4167 3.25C17.5833 3.08333 17.7778 3 18 3C18.2222 3 18.4167 3.08333 18.5833 3.25L19.9167 4.58333C20.0833 4.75 20.2778 4.83333 20.5 4.83333C20.7222 4.83333 20.9167 4.75 21.0833 4.58333L22.4167 3.25C22.5833 3.08333 22.7778 3 23 3C23.2222 3 23.4167 3.08333 23.5833 3.25L24.9167 4.58333C25.0833 4.75 25.2778 4.83333 25.5 4.83333C25.7222 4.83333 25.9167 4.75 26.0833 4.58333L27.4167 3.25C27.5833 3.08333 27.7778 3 28 3C28.2222 3 28.4167 3.08333 28.5833 3.25L29.9167 4.58333C30.0833 4.75 30.2778 4.83333 30.5 4.83333C30.7222 4.83333 30.9167 4.75 31.0833 4.58333L32.2917 3.375C32.4306 3.23611 32.5833 3.20139 32.75 3.27083C32.9167 3.34028 33 3.47222 33 3.66667V15.1691H29.6667V7.66667H11.3333V14.8333H8V3.66667Z" />
</svg>
