<svg width="40" height="40" viewBox="0 0 40 40" fill="none" xmlns="http://www.w3.org/2000/svg">
<path d="M34.6667 35C34.4444 35 34.2361 34.9583 34.0417 34.875C33.8472 34.7917 33.6667 34.6667 33.5 34.5L29.6667 30.6667H13C12.0833 30.6667 11.2986 30.3403 10.6458 29.6875C9.99306 29.0347 9.66667 28.25 9.66667 27.3333V25.6667H28C28.9167 25.6667 29.7014 25.3403 30.3542 24.6875C31.0069 24.0347 31.3333 23.25 31.3333 22.3333V10.6667H33C33.9167 10.6667 34.7014 10.9931 35.3542 11.6458C36.0069 12.2986 36.3333 13.0833 36.3333 14V33.2917C36.3333 33.7917 36.1667 34.2014 35.8333 34.5208C35.5 34.8403 35.1111 35 34.6667 35ZM6.33333 20.9583L8.29167 19H24.6667V7.33333H6.33333V20.9583ZM4.66667 26.6667C4.22222 26.6667 3.83333 26.5069 3.5 26.1875C3.16667 25.8681 3 25.4583 3 24.9583V7.33333C3 6.41667 3.32639 5.63194 3.97917 4.97917C4.63194 4.32639 5.41667 4 6.33333 4H24.6667C25.5833 4 26.3681 4.32639 27.0208 4.97917C27.6736 5.63194 28 6.41667 28 7.33333V19C28 19.9167 27.6736 20.7014 27.0208 21.3542C26.3681 22.0069 25.5833 22.3333 24.6667 22.3333H9.66667L5.83333 26.1667C5.66667 26.3333 5.48611 26.4583 5.29167 26.5417C5.09722 26.625 4.88889 26.6667 4.66667 26.6667Z" />
</svg>
