<svg width="40" height="40" viewBox="0 0 40 40" fill="none" xmlns="http://www.w3.org/2000/svg">
<path d="M15.8335 32C15.1391 32 14.5488 31.7569 14.0627 31.2708C13.5766 30.7847 13.3335 30.1944 13.3335 29.5V10.5C13.3335 9.80556 13.5766 9.21528 14.0627 8.72917C14.5488 8.24306 15.1391 8 15.8335 8C16.528 8 17.1182 8.24306 17.6044 8.72917C18.0905 9.21528 18.3335 9.80556 18.3335 10.5V29.5C18.3335 30.1944 18.0905 30.7847 17.6044 31.2708C17.1182 31.7569 16.528 32 15.8335 32ZM32.5002 32C31.8057 32 31.2155 31.7569 30.7294 31.2708C30.2432 30.7847 30.0002 30.1944 30.0002 29.5V5.5C30.0002 4.80556 30.2432 4.21528 30.7294 3.72917C31.2155 3.24306 31.8057 3 32.5002 3C33.1946 3 33.7849 3.24306 34.271 3.72917C34.7571 4.21528 35.0002 4.80556 35.0002 5.5V29.5C35.0002 30.1944 34.7571 30.7847 34.271 31.2708C33.7849 31.7569 33.1946 32 32.5002 32Z" />
<path d="M3.12598 33.6667H36.8744V37H3.12598V33.6667Z" />
<path d="M5.00098 32L5.00019 18.8333C5.00019 18.1389 5.24324 17.5486 5.72935 17.0625C6.21546 16.5764 6.80574 16.3333 7.50019 16.3333C8.19463 16.3333 8.78491 16.5764 9.27102 17.0625C9.75713 17.5486 10.0002 18.1389 10.0002 18.8333V32H5.00098Z" />
<path d="M21.6669 32V15.5C21.6669 14.8056 21.9099 14.2153 22.396 13.7292C22.8821 13.2431 23.4724 13 24.1669 13C24.8613 13 25.4516 13.2431 25.9377 13.7292C26.4238 14.2153 26.6669 14.8056 26.6669 15.5V32H21.6669Z" />
</svg>
