<svg width="40" height="40" viewBox="0 0 40 40" fill="none" xmlns="http://www.w3.org/2000/svg">
<path d="M7.51175 20.0459L16.1061 28.4334L13.4804 31L3.51697 21.2834C3.32898 21.1001 3.19582 20.9015 3.11749 20.6876C3.03916 20.4737 3 20.2446 3 20.0001C3 19.7557 3.03916 19.5265 3.11749 19.3126C3.19582 19.0987 3.32898 18.9001 3.51697 18.7168L12.1645 10.2835C12.5405 9.91679 12.9869 9.73346 13.5039 9.73346C14.0209 9.73346 14.4674 9.91679 14.8433 10.2835C15.2193 10.6501 15.4073 11.0855 15.4073 11.5897C15.4073 12.0939 15.2193 12.5293 14.8433 12.896L7.51175 20.0459Z" />
<path d="M32.4883 19.9543L23.8877 11.5668L26.5195 9L36.483 18.7168C36.671 18.9001 36.8042 19.0987 36.8825 19.3126C36.9608 19.5265 37 19.7557 37 20.0001C37 20.2446 36.9608 20.4737 36.8825 20.6876C36.8042 20.9015 36.671 21.1001 36.483 21.2834L27.8355 29.7168C27.4595 30.0834 27.0209 30.2591 26.5196 30.2438C26.0183 30.2286 25.5796 30.0376 25.2037 29.6709C24.8277 29.3043 24.6397 28.8688 24.6397 28.3647C24.6397 27.8605 24.8277 27.4251 25.2037 27.0584L32.4883 19.9543Z" />
</svg>
