<svg width="40" height="40" viewBox="0 0 40 40" fill="none" xmlns="http://www.w3.org/2000/svg">
<path d="M13.583 36.25L11.1663 32.1666L6.58301 31.1666C6.16634 31.0833 5.83301 30.868 5.58301 30.5208C5.33301 30.1736 5.23579 29.7916 5.29134 29.375L5.74967 24.6666L2.62467 21.0833C2.3469 20.7777 2.20801 20.4166 2.20801 20C2.20801 19.5833 2.3469 19.2222 2.62467 18.9166L5.74967 15.3333L5.29134 10.625C5.23579 10.2083 5.33301 9.82634 5.58301 9.47912C5.83301 9.1319 6.16634 8.91662 6.58301 8.83329L11.1663 7.83329L13.583 3.74995C13.8052 3.38884 14.1108 3.14579 14.4997 3.02079C14.8886 2.89579 15.2775 2.91662 15.6663 3.08329L19.9997 4.91662L24.333 3.08329C24.7219 2.91662 25.1108 2.89579 25.4997 3.02079C25.8886 3.14579 26.1941 3.38884 26.4163 3.74995L28.833 7.83329L33.4163 8.83329C33.833 8.91662 34.1663 9.1319 34.4163 9.47912C34.6663 9.82634 34.7636 10.2083 34.708 10.625L34.2497 15.3333L37.3747 18.9166C37.6525 19.2222 37.7913 19.5833 37.7913 20C37.7913 20.4166 37.6525 20.7777 37.3747 21.0833L34.2497 24.6666L34.708 29.375C34.7636 29.7916 34.6663 30.1736 34.4163 30.5208C34.1663 30.868 33.833 31.0833 33.4163 31.1666L28.833 32.1666L26.4163 36.25C26.1941 36.6111 25.8886 36.8541 25.4997 36.9791C25.1108 37.1041 24.7219 37.0833 24.333 36.9166L19.9997 35.0833L15.6663 36.9166C15.2775 37.0833 14.8886 37.1041 14.4997 36.9791C14.1108 36.8541 13.8052 36.6111 13.583 36.25ZM15.7497 33.25L19.9997 31.4166L24.333 33.25L26.6663 29.25L31.2497 28.1666L30.833 23.5L33.9163 20L30.833 16.4166L31.2497 11.75L26.6663 10.75L24.2497 6.74995L19.9997 8.58329L15.6663 6.74995L13.333 10.75L8.74967 11.75L9.16634 16.4166L6.08301 20L9.16634 23.5L8.74967 28.25L13.333 29.25L15.7497 33.25Z" />
<path d="M27.6673 16.4999L18.2507 25.9166L12.334 19.9999L14.6673 17.6666L18.2507 21.1666L25.334 14.0833L27.6673 16.4999Z" />
</svg>
