<svg width="40" height="40" viewBox="0 0 40 40" fill="none" xmlns="http://www.w3.org/2000/svg">
<path d="M27.2227 22.7227C27.2227 21.4649 26.7875 20.4116 25.9102 19.5342C25.0329 18.6569 23.9802 18.2228 22.7227 18.2227C21.4649 18.2227 20.4116 18.6568 19.5342 19.5342C18.6568 20.4116 18.2227 21.4649 18.2227 22.7227C18.2228 23.9802 18.6569 25.0329 19.5342 25.9102C20.4116 26.7875 21.4649 27.2227 22.7227 27.2227C23.9803 27.2226 25.0329 26.7874 25.9102 25.9102C26.7874 25.0329 27.2226 23.9803 27.2227 22.7227ZM30.4443 22.7227C30.4443 23.5911 30.3061 24.4169 30.0264 25.1963C29.8036 25.8167 29.5138 26.3837 29.1582 26.8955L36.207 33.9443L33.9443 36.207L26.8955 29.1582C26.3837 29.5138 25.8167 29.8036 25.1963 30.0264C24.4169 30.3061 23.5911 30.4443 22.7227 30.4443C20.5748 30.4443 18.7381 29.695 17.2441 28.2012C15.7502 26.7072 15.0001 24.8705 15 22.7227C15 20.5746 15.7501 18.7382 17.2441 17.2441C18.7382 15.7501 20.5746 15 22.7227 15C24.8705 15.0001 26.7072 15.7502 28.2012 17.2441C29.695 18.7381 30.4443 20.5748 30.4443 22.7227Z" />
<path fill-rule="evenodd" clip-rule="evenodd" d="M33 6C33.9167 6 34.7017 6.32671 35.3545 6.97949C36.007 7.63213 36.3329 8.41663 36.333 9.33301V29.333C36.333 30.077 36.1184 30.7344 35.6885 31.3047L33 28.6162V12.667H6.33301V29.333H16.2578L16.5225 29.5859C18.244 31.153 20.345 31.9443 22.7227 31.9443L23.1074 31.9365C24.0017 31.9004 24.8701 31.7374 25.7031 31.4385L25.9775 31.335C26.2079 31.2441 26.432 31.1431 26.6514 31.0352L28.2832 32.667H6.33301C5.41656 32.6669 4.63216 32.3401 3.97949 31.6875C3.32671 31.0347 3 30.2497 3 29.333V9.33301C3.00008 8.41648 3.32679 7.63219 3.97949 6.97949C4.63219 6.32679 5.41648 6.00008 6.33301 6H33ZM7.25 8.5C6.83579 8.5 6.5 8.83579 6.5 9.25C6.5 9.66421 6.83579 10 7.25 10C7.66421 10 8 9.66421 8 9.25C8 8.83579 7.66421 8.5 7.25 8.5ZM9.75 8.5C9.33579 8.5 9 8.83579 9 9.25C9 9.66421 9.33579 10 9.75 10C10.1642 10 10.5 9.66421 10.5 9.25C10.5 8.83579 10.1642 8.5 9.75 8.5ZM12.25 8.5C11.8358 8.5 11.5 8.83579 11.5 9.25C11.5 9.66421 11.8358 10 12.25 10C12.6642 10 13 9.66421 13 9.25C13 8.83579 12.6642 8.5 12.25 8.5Z" />
<path d="M31.5957 29.333L34.5527 32.29C34.0858 32.541 33.5683 32.667 33 32.667H30.4043L27.0703 29.333H31.5957Z" />
<path d="M26.6289 29.333C26.1886 29.6095 25.7112 29.8415 25.1963 30.0264C24.4169 30.3061 23.5911 30.4443 22.7227 30.4443C21.2123 30.4443 19.8567 30.0724 18.665 29.333H26.6289Z" />
</svg>
