<svg width="40" height="40" viewBox="0 0 40 40" fill="none" xmlns="http://www.w3.org/2000/svg">
<path d="M23 27C24.3085 27 25.4704 27.6282 26.2002 28.5996V33.3994C25.4704 34.3712 24.3088 35 23 35C20.7909 35 19 33.2091 19 31C19 28.7909 20.7909 27 23 27ZM5.28613 30.4287H13V31H5.28613C5.12834 31 5 30.8717 5 30.7139C5.00023 30.5563 5.12848 30.4287 5.28613 30.4287ZM35 30.4287V31H30C30 30.8076 29.9898 30.6172 29.9746 30.4287H35ZM11 16C13.2091 16 15 17.7909 15 20C15 22.2091 13.2091 24 11 24C10.1288 24 9.32389 23.7199 8.66699 23.2471V16.752C9.32381 16.2793 10.129 16 11 16ZM34.7139 19.7139C34.8717 19.7139 35 19.8422 35 20C35 20.1578 34.8717 20.2861 34.7139 20.2861H21.8662V19.7139H34.7139ZM29 5C30.0141 5 30.9395 5.37802 31.6445 6H31.333V12.2471C30.6761 12.7199 29.8712 13 29 13C26.7909 13 25 11.2091 25 9C25 6.79086 26.7909 5 29 5ZM5.28613 9H18.1338V9.57129H5.28613C5.12848 9.57129 5.00023 9.44374 5 9.28613C5 9.12834 5.12834 9 5.28613 9Z" stroke="black" stroke-width="3"/>
</svg>
