<svg width="40" height="40" viewBox="0 0 40 40" fill="none" xmlns="http://www.w3.org/2000/svg">
<path d="M15.875 36.5C14.3167 36.5 12.9722 35.9576 11.8417 34.8729C10.7111 33.7882 10.0694 32.4819 9.91667 30.9542C8.08333 30.7097 6.55556 29.9 5.33333 28.525C4.11111 27.15 3.5 25.5306 3.5 23.6667C3.5 23.025 3.58403 22.391 3.75208 21.7646C3.92014 21.1382 4.17222 20.55 4.50833 20C4.17222 19.45 3.92014 18.8694 3.75208 18.2583C3.58403 17.6472 3.5 17.0056 3.5 16.3333C3.5 14.4694 4.11111 12.8576 5.33333 11.4979C6.55556 10.1382 8.06806 9.33611 9.87083 9.09167C9.9625 7.53333 10.5889 6.21181 11.75 5.12708C12.9111 4.04236 14.2861 3.5 15.875 3.5C16.6694 3.5 17.4104 3.65278 18.0979 3.95833C18.7854 4.26389 19.4194 4.67639 20 5.19583C20.55 4.67639 21.1764 4.26389 21.8792 3.95833C22.5819 3.65278 23.3306 3.5 24.125 3.5C25.7139 3.5 27.0813 4.03472 28.2271 5.10417C29.3729 6.17361 29.9917 7.4875 30.0833 9.04583C31.8861 9.29028 33.4063 10.1 34.6438 11.475C35.8813 12.85 36.5 14.4694 36.5 16.3333C36.5 17.0056 36.416 17.6472 36.2479 18.2583C36.0799 18.8694 35.8278 19.45 35.4917 20C35.8278 20.55 36.0799 21.1382 36.2479 21.7646C36.416 22.391 36.5 23.025 36.5 23.6667C36.5 25.5611 35.8813 27.1882 34.6438 28.5479C33.4063 29.9076 31.8708 30.7097 30.0375 30.9542C29.8847 32.4819 29.2507 33.7882 28.1354 34.8729C27.0201 35.9576 25.6833 36.5 24.125 36.5C23.3611 36.5 22.6201 36.3549 21.9021 36.0646C21.184 35.7743 20.55 35.3694 20 34.85C19.4194 35.3694 18.7778 35.7743 18.075 36.0646C17.3722 36.3549 16.6389 36.5 15.875 36.5ZM21.8333 9.45833V30.5417C21.8333 31.1833 22.0549 31.7257 22.4979 32.1688C22.941 32.6118 23.4833 32.8333 24.125 32.8333C24.7361 32.8333 25.2632 32.5889 25.7063 32.1C26.1493 31.6111 26.3861 31.0611 26.4167 30.45C25.775 30.2056 25.1868 29.8771 24.6521 29.4646C24.1174 29.0521 23.6361 28.5556 23.2083 27.975C22.9028 27.5472 22.7882 27.0889 22.8646 26.6C22.941 26.1111 23.1931 25.7139 23.6208 25.4083C24.0486 25.1028 24.5069 24.9882 24.9958 25.0646C25.4847 25.141 25.8819 25.3931 26.1875 25.8208C26.5236 26.3097 26.9514 26.684 27.4708 26.9438C27.9903 27.2035 28.5556 27.3333 29.1667 27.3333C30.175 27.3333 31.0382 26.9743 31.7563 26.2563C32.4743 25.5382 32.8333 24.675 32.8333 23.6667C32.8333 23.5139 32.8257 23.3611 32.8104 23.2083C32.7951 23.0556 32.7569 22.9028 32.6958 22.75C32.1764 23.0556 31.6188 23.2847 31.0229 23.4375C30.4271 23.5903 29.8083 23.6667 29.1667 23.6667C28.6472 23.6667 28.2118 23.491 27.8604 23.1396C27.509 22.7882 27.3333 22.3528 27.3333 21.8333C27.3333 21.3139 27.509 20.8785 27.8604 20.5271C28.2118 20.1757 28.6472 20 29.1667 20C30.175 20 31.0382 19.641 31.7563 18.9229C32.4743 18.2049 32.8333 17.3417 32.8333 16.3333C32.8333 15.325 32.4743 14.4694 31.7563 13.7667C31.0382 13.0639 30.175 12.6972 29.1667 12.6667C28.8306 13.2167 28.3951 13.6979 27.8604 14.1104C27.3257 14.5229 26.7375 14.8514 26.0958 15.0958C25.6069 15.2792 25.1333 15.2639 24.675 15.05C24.2167 14.8361 23.9111 14.4847 23.7583 13.9958C23.6056 13.5069 23.6285 13.0333 23.8271 12.575C24.0257 12.1167 24.3694 11.8111 24.8583 11.6583C25.3167 11.5056 25.691 11.2306 25.9813 10.8333C26.2715 10.4361 26.4167 9.97778 26.4167 9.45833C26.4167 8.81667 26.1951 8.27431 25.7521 7.83125C25.309 7.38819 24.7667 7.16667 24.125 7.16667C23.4833 7.16667 22.941 7.38819 22.4979 7.83125C22.0549 8.27431 21.8333 8.81667 21.8333 9.45833ZM18.1667 30.5417V9.45833C18.1667 8.81667 17.9451 8.27431 17.5021 7.83125C17.059 7.38819 16.5167 7.16667 15.875 7.16667C15.2333 7.16667 14.691 7.38819 14.2479 7.83125C13.8049 8.27431 13.5833 8.81667 13.5833 9.45833C13.5833 9.94722 13.7208 10.3979 13.9958 10.8104C14.2708 11.2229 14.6375 11.5056 15.0958 11.6583C15.5847 11.8111 15.9361 12.1167 16.15 12.575C16.3639 13.0333 16.3944 13.5069 16.2417 13.9958C16.0583 14.4847 15.7375 14.8361 15.2792 15.05C14.8208 15.2639 14.3472 15.2792 13.8583 15.0958C13.2167 14.8514 12.6285 14.5229 12.0938 14.1104C11.559 13.6979 11.1236 13.2167 10.7875 12.6667C9.80972 12.6972 8.96181 13.0715 8.24375 13.7896C7.52569 14.5076 7.16667 15.3556 7.16667 16.3333C7.16667 17.3417 7.52569 18.2049 8.24375 18.9229C8.96181 19.641 9.825 20 10.8333 20C11.3528 20 11.7882 20.1757 12.1396 20.5271C12.491 20.8785 12.6667 21.3139 12.6667 21.8333C12.6667 22.3528 12.491 22.7882 12.1396 23.1396C11.7882 23.491 11.3528 23.6667 10.8333 23.6667C10.1917 23.6667 9.57292 23.5903 8.97708 23.4375C8.38125 23.2847 7.82361 23.0556 7.30417 22.75C7.24306 22.9028 7.20486 23.0556 7.18958 23.2083C7.17431 23.3611 7.16667 23.5139 7.16667 23.6667C7.16667 24.675 7.52569 25.5382 8.24375 26.2563C8.96181 26.9743 9.825 27.3333 10.8333 27.3333C11.4444 27.3333 12.0097 27.2035 12.5292 26.9438C13.0486 26.684 13.4764 26.3097 13.8125 25.8208C14.1181 25.3931 14.5153 25.141 15.0042 25.0646C15.4931 24.9882 15.9514 25.1028 16.3792 25.4083C16.8069 25.7139 17.059 26.1111 17.1354 26.6C17.2118 27.0889 17.0972 27.5472 16.7917 27.975C16.3639 28.5556 15.875 29.0597 15.325 29.4875C14.775 29.9153 14.1792 30.2514 13.5375 30.4958C13.5681 31.1069 13.8125 31.6493 14.2708 32.1229C14.7292 32.5965 15.2639 32.8333 15.875 32.8333C16.5167 32.8333 17.059 32.6118 17.5021 32.1688C17.9451 31.7257 18.1667 31.1833 18.1667 30.5417Z" />
</svg>
