<svg width="40" height="40" viewBox="0 0 40 40" fill="none" xmlns="http://www.w3.org/2000/svg">
<path d="M34.9053 17.6504V18C34.9053 18.1932 34.903 18.4065 34.8994 18.6396L34.8828 19.3994C34.8684 19.9285 34.8542 20.4796 34.8398 21.0527V22.7207L34.9053 28.5381L34.9482 30.6299C34.9655 30.9389 34.9806 31.1743 34.9922 31.3389L36.0947 31.6484L36.3672 31.7246L36.3496 32.0078L36.2842 33.0225L36.2637 33.3496H29.9561L29.9346 33.0225L29.8701 32.0078L29.8516 31.7139L30.1377 31.6455L31.4404 31.3301C31.4424 31.2694 31.4443 31.2012 31.4443 31.125V31.1123L31.4453 31.0986C31.4588 30.9196 31.4658 30.6866 31.4658 30.3975V30.3789C31.4798 30.1071 31.4873 29.79 31.4873 29.4268V27.6533C31.2582 27.9181 31.0116 28.1345 30.7432 28.2939L30.7363 28.2979C30.2461 28.5728 29.7415 28.7178 29.2275 28.7178C28.4011 28.7178 27.633 28.5013 26.9307 28.0703L26.9277 28.0684C26.2407 27.6372 25.69 27.0399 25.2754 26.2861L25.2744 26.2832C24.8549 25.5045 24.6504 24.6153 24.6504 23.625C24.6504 22.454 24.9143 21.4365 25.4609 20.5898L25.4619 20.5879L25.6748 20.2812C26.189 19.5865 26.8231 19.0381 27.5752 18.6396L27.5781 18.6377L27.9062 18.4785C28.6789 18.1322 29.4942 17.959 30.3486 17.959C30.8299 17.959 31.2859 18.0049 31.7148 18.0986H31.7158C32.0733 18.1743 32.4047 18.2831 32.71 18.4229L33.5068 17.7354L33.6055 17.6504H34.9053ZM30.2842 19.9824C29.9087 19.9824 29.5862 20.0864 29.3037 20.291C29.022 20.4951 28.7838 20.8048 28.6016 21.2441L28.6006 21.248C28.4232 21.6627 28.3262 22.1932 28.3262 22.8525C28.3262 23.8964 28.5404 24.6478 28.9209 25.1523L29.0762 25.335C29.442 25.7297 29.8291 25.9004 30.2412 25.9004C30.3808 25.9004 30.5762 25.8511 30.8369 25.7178L30.8428 25.7148L30.9297 25.668C31.1088 25.5629 31.272 25.4052 31.4229 25.1885L31.4434 20.4561C31.2984 20.3105 31.1386 20.2044 30.959 20.1367L30.9512 20.1338L30.9443 20.1299C30.7084 20.0283 30.4888 19.9824 30.2842 19.9824ZM12.0928 6.65039C12.8357 6.65041 13.5341 6.84171 14.1816 7.22266H14.1807C14.8345 7.59313 15.3578 8.13796 15.7529 8.84375C15.834 8.98853 15.9036 9.08392 15.9639 9.16016C16.0154 9.22535 16.0982 9.32095 16.1572 9.41406C16.3051 9.64755 16.3496 9.91148 16.3496 10.3867C16.3496 10.87 16.2929 11.5832 16.1807 12.2754C16.0704 12.9554 15.8992 13.6683 15.6475 14.1182C15.1923 14.9424 14.5467 15.6084 13.7188 16.1143C12.8761 16.6291 11.8834 16.8789 10.7549 16.8789C10.5073 16.8789 10.2412 16.8567 9.95801 16.8125L9.95508 16.8115C9.83545 16.7918 9.71594 16.7665 9.59668 16.7383V17.5996C9.59668 18.0574 9.60322 18.4868 9.61719 18.8877C9.63216 19.1007 9.64804 19.2629 9.66113 19.3799L11.1611 19.6699L11.4639 19.7285L11.4443 20.0361L11.3799 21.0225L11.3594 21.3496H4.7998L4.77832 21.0234L4.71484 20.0576L4.69531 19.7715L4.97168 19.6963L6.04004 19.4062C6.0435 19.3282 6.04629 19.2375 6.05176 19.1348V19.1328L6.09473 18.1748V18.1738L6.13672 16.917L6.15234 16.2402C6.15585 16.0114 6.1582 15.7789 6.1582 15.543V15.5391L6.2002 11.3662L6.18945 10.7969C6.18257 10.6165 6.17284 10.4453 6.15918 10.2832C6.13803 10.0323 6.09986 9.77704 6.05371 9.5166L4.92578 9.27344L4.65039 9.21387V7.71387L4.91406 7.64746L8.65137 6.70312L8.7959 6.66602L8.92285 6.74512L9.49609 7.10156L9.68359 7.21875L9.6582 7.43945L9.63184 7.66406C9.83505 7.4757 10.0567 7.30776 10.2979 7.16211C10.8592 6.82308 11.4594 6.65039 12.0928 6.65039ZM11.7334 9.60254C11.4636 9.42864 11.1752 9.34381 10.8613 9.34375C10.6273 9.34375 10.3935 9.40379 10.1572 9.53223L10.1455 9.53906C9.94149 9.6399 9.75991 9.77709 9.59668 9.9502V14.3984C9.73913 14.4763 9.89605 14.5433 10.0693 14.5977C10.3051 14.6579 10.5473 14.6894 10.7969 14.6895C11.1804 14.6895 11.4973 14.6042 11.7598 14.4473C12.027 14.2822 12.2545 14.015 12.4307 13.6172C12.6025 13.2289 12.6982 12.7073 12.6982 12.0371C12.6982 11.3383 12.5951 10.8169 12.415 10.4492L12.4092 10.4375V10.4365C12.2331 10.039 12.0063 9.77149 11.7393 9.60645L11.7334 9.60352L11.9229 9.30859L11.7334 9.60254ZM22.3496 25.3027L22.1533 25.3984C20.8965 26.0098 19.7319 26.9479 18.6621 28.2246L18.5566 28.3496H15.8418L16.0254 27.874C16.2071 27.4017 16.4077 26.9633 16.6279 26.5596C16.7399 26.3454 16.8589 26.138 16.9854 25.9375H5.15039V23.0625H17.001C16.8807 22.8685 16.7651 22.6699 16.6543 22.4668L16.6514 22.4609C16.4327 22.0419 16.2329 21.5969 16.0518 21.126L15.8682 20.6504H18.5557L18.6602 20.7734C19.731 22.0341 20.8985 22.984 22.1602 23.6318L22.3496 23.7295V25.3027Z"  stroke="black" stroke-width="0.7"/>
</svg>
